<svg width="743" height="284" viewBox="0 0 743 284" fill="none" xmlns="http://www.w3.org/2000/svg">
<path d="M420.959 0.205918C416.292 1.42115 410.944 4.01012 403.498 8.71254L398.097 12.1469L395.109 10.826C387.768 7.55015 380.27 6.12357 370.779 6.12357C352.217 6.17641 336.749 13.9433 327.416 27.8392C317.453 42.6334 316.195 65.2472 324.427 81.6793L326.157 85.1665L323.064 89.9217C317.348 98.6925 313.888 107.411 314.569 111.215C317.034 124.318 354.053 100.383 389.76 62.4998C411.678 39.3047 427.356 16.3738 428.404 6.0179C428.667 3.64027 428.509 3.05907 427.461 1.791C426.202 0.31159 423.318 -0.37528 420.959 0.205918ZM378.959 27.3637C381.214 27.9449 384.255 29.0545 385.723 29.847C388.816 31.4849 395.685 38.1423 395.423 39.2518C394.742 42.3163 355.521 81.785 353.109 81.785C352.008 81.785 347.603 76.1315 345.925 72.6443C338.899 57.7445 343.146 38.9348 355.311 31.0094C358.142 29.1601 363.071 27.2052 366.165 26.6768C369.626 26.0956 375.236 26.3598 378.959 27.3637Z" fill="white"/>
<path d="M417.603 46.9659C403.708 67.6248 380.113 91.1898 359.716 104.769C357.723 106.09 356.884 106.935 357.304 107.199C358.877 108.15 367.266 108.837 374.24 108.573C397.154 107.728 414.719 95.311 421.116 75.4446C424.262 65.7227 424.682 51.8268 422.113 43.3202L421.483 41.2067L417.603 46.9659Z" fill="white"/>
<path d="M52.208 229.871H26.208L22.256 241.831H0.832L27.56 168.511H51.064L77.688 241.831H56.16L52.208 229.871ZM47.112 214.271L39.208 190.559L31.408 214.271H47.112ZM108.148 242.559C102.878 242.559 98.1638 241.693 94.0038 239.959C89.9131 238.157 86.6545 235.73 84.2278 232.679C81.8705 229.559 80.5531 226.058 80.2758 222.175H100.036C100.313 224.047 101.18 225.503 102.636 226.543C104.092 227.583 105.894 228.103 108.044 228.103C109.708 228.103 111.025 227.757 111.996 227.063C112.966 226.37 113.452 225.469 113.452 224.359C113.452 222.903 112.654 221.829 111.06 221.135C109.465 220.442 106.83 219.679 103.156 218.847C98.9958 218.015 95.5291 217.079 92.7558 216.039C89.9825 214.999 87.5558 213.301 85.4758 210.943C83.4651 208.586 82.4598 205.397 82.4598 201.375C82.4598 197.909 83.3958 194.789 85.2678 192.015C87.1398 189.173 89.8785 186.919 93.4838 185.255C97.1585 183.591 101.561 182.759 106.692 182.759C114.318 182.759 120.316 184.631 124.684 188.375C129.052 192.119 131.582 197.042 132.276 203.143H113.868C113.521 201.271 112.689 199.85 111.372 198.879C110.124 197.839 108.425 197.319 106.276 197.319C104.612 197.319 103.329 197.631 102.428 198.255C101.596 198.879 101.18 199.746 101.18 200.855C101.18 202.242 101.977 203.317 103.572 204.079C105.166 204.773 107.732 205.501 111.268 206.263C115.497 207.165 118.998 208.17 121.772 209.279C124.614 210.389 127.076 212.191 129.156 214.687C131.305 217.114 132.38 220.442 132.38 224.671C132.38 228.069 131.374 231.119 129.364 233.823C127.422 236.527 124.614 238.677 120.94 240.271C117.334 241.797 113.07 242.559 108.148 242.559ZM175.785 224.463V241.831H166.945C152.039 241.831 144.585 234.447 144.585 219.679V200.439H137.409V183.487H144.585V169.343H165.073V183.487H175.681V200.439H165.073V219.991C165.073 221.586 165.42 222.73 166.113 223.423C166.876 224.117 168.124 224.463 169.857 224.463H175.785ZM204.479 193.783C206.767 190.455 209.54 187.821 212.799 185.879C216.057 183.938 219.559 182.967 223.303 182.967V204.703H217.583C213.145 204.703 209.852 205.57 207.703 207.303C205.553 209.037 204.479 212.053 204.479 216.351V241.831H184.095V183.487H204.479V193.783ZM256.714 242.559C250.89 242.559 245.656 241.346 241.01 238.919C236.434 236.493 232.829 233.026 230.194 228.519C227.56 224.013 226.242 218.709 226.242 212.607C226.242 206.575 227.56 201.306 230.194 196.799C232.898 192.293 236.538 188.826 241.114 186.399C245.76 183.973 250.994 182.759 256.818 182.759C262.642 182.759 267.842 183.973 272.418 186.399C277.064 188.826 280.704 192.293 283.338 196.799C286.042 201.306 287.394 206.575 287.394 212.607C287.394 218.639 286.042 223.943 283.338 228.519C280.704 233.026 277.064 236.493 272.418 238.919C267.773 241.346 262.538 242.559 256.714 242.559ZM256.714 224.879C259.557 224.879 261.914 223.839 263.786 221.759C265.728 219.61 266.698 216.559 266.698 212.607C266.698 208.655 265.728 205.639 263.786 203.559C261.914 201.479 259.592 200.439 256.818 200.439C254.045 200.439 251.722 201.479 249.85 203.559C247.978 205.639 247.042 208.655 247.042 212.607C247.042 216.629 247.944 219.679 249.746 221.759C251.549 223.839 253.872 224.879 256.714 224.879ZM322.623 222.591L333.543 183.487H355.279L335.207 241.831H309.831L289.759 183.487H311.495L322.623 222.591ZM371.443 178.079C367.837 178.079 364.925 177.109 362.707 175.167C360.557 173.157 359.483 170.661 359.483 167.679C359.483 164.629 360.557 162.098 362.707 160.087C364.925 158.077 367.837 157.071 371.443 157.071C374.979 157.071 377.821 158.077 379.971 160.087C382.189 162.098 383.299 164.629 383.299 167.679C383.299 170.661 382.189 173.157 379.971 175.167C377.821 177.109 374.979 178.079 371.443 178.079ZM381.531 183.487V241.831H361.147V183.487H381.531ZM416.955 242.559C411.685 242.559 406.971 241.693 402.811 239.959C398.72 238.157 395.461 235.73 393.035 232.679C390.677 229.559 389.36 226.058 389.083 222.175H408.843C409.12 224.047 409.987 225.503 411.443 226.543C412.899 227.583 414.701 228.103 416.851 228.103C418.515 228.103 419.832 227.757 420.803 227.063C421.773 226.37 422.259 225.469 422.259 224.359C422.259 222.903 421.461 221.829 419.867 221.135C418.272 220.442 415.637 219.679 411.963 218.847C407.803 218.015 404.336 217.079 401.563 216.039C398.789 214.999 396.363 213.301 394.283 210.943C392.272 208.586 391.267 205.397 391.267 201.375C391.267 197.909 392.203 194.789 394.075 192.015C395.947 189.173 398.685 186.919 402.291 185.255C405.965 183.591 410.368 182.759 415.499 182.759C423.125 182.759 429.123 184.631 433.491 188.375C437.859 192.119 440.389 197.042 441.083 203.143H422.675C422.328 201.271 421.496 199.85 420.179 198.879C418.931 197.839 417.232 197.319 415.083 197.319C413.419 197.319 412.136 197.631 411.235 198.255C410.403 198.879 409.987 199.746 409.987 200.855C409.987 202.242 410.784 203.317 412.379 204.079C413.973 204.773 416.539 205.501 420.075 206.263C424.304 207.165 427.805 208.17 430.579 209.279C433.421 210.389 435.883 212.191 437.963 214.687C440.112 217.114 441.187 220.442 441.187 224.671C441.187 228.069 440.181 231.119 438.171 233.823C436.229 236.527 433.421 238.677 429.747 240.271C426.141 241.797 421.877 242.559 416.955 242.559ZM460.464 178.079C456.859 178.079 453.947 177.109 451.728 175.167C449.579 173.157 448.504 170.661 448.504 167.679C448.504 164.629 449.579 162.098 451.728 160.087C453.947 158.077 456.859 157.071 460.464 157.071C464 157.071 466.843 158.077 468.992 160.087C471.211 162.098 472.32 164.629 472.32 167.679C472.32 170.661 471.211 173.157 468.992 175.167C466.843 177.109 464 178.079 460.464 178.079ZM470.552 183.487V241.831H450.168V183.487H470.552ZM508.264 242.559C502.44 242.559 497.206 241.346 492.56 238.919C487.984 236.493 484.379 233.026 481.744 228.519C479.11 224.013 477.792 218.709 477.792 212.607C477.792 206.575 479.11 201.306 481.744 196.799C484.448 192.293 488.088 188.826 492.664 186.399C497.31 183.973 502.544 182.759 508.368 182.759C514.192 182.759 519.392 183.973 523.968 186.399C528.614 188.826 532.254 192.293 534.888 196.799C537.592 201.306 538.944 206.575 538.944 212.607C538.944 218.639 537.592 223.943 534.888 228.519C532.254 233.026 528.614 236.493 523.968 238.919C519.323 241.346 514.088 242.559 508.264 242.559ZM508.264 224.879C511.107 224.879 513.464 223.839 515.336 221.759C517.278 219.61 518.248 216.559 518.248 212.607C518.248 208.655 517.278 205.639 515.336 203.559C513.464 201.479 511.142 200.439 508.368 200.439C505.595 200.439 503.272 201.479 501.4 203.559C499.528 205.639 498.592 208.655 498.592 212.607C498.592 216.629 499.494 219.679 501.296 221.759C503.099 223.839 505.422 224.879 508.264 224.879ZM584.365 182.967C591.091 182.967 596.429 185.221 600.381 189.727C604.333 194.165 606.309 200.197 606.309 207.823V241.831H585.925V210.527C585.925 207.199 585.059 204.599 583.325 202.727C581.592 200.786 579.269 199.815 576.357 199.815C573.307 199.815 570.915 200.786 569.181 202.727C567.448 204.599 566.581 207.199 566.581 210.527V241.831H546.197V183.487H566.581V191.807C568.384 189.173 570.811 187.058 573.861 185.463C576.912 183.799 580.413 182.967 584.365 182.967ZM626.334 242.663C622.729 242.663 619.817 241.693 617.598 239.751C615.449 237.741 614.374 235.21 614.374 232.159C614.374 229.109 615.449 226.578 617.598 224.567C619.817 222.557 622.729 221.551 626.334 221.551C629.87 221.551 632.713 222.557 634.862 224.567C637.081 226.578 638.19 229.109 638.19 232.159C638.19 235.141 637.081 237.637 634.862 239.647C632.713 241.658 629.87 242.663 626.334 242.663ZM643.368 212.607C643.368 206.575 644.442 201.306 646.592 196.799C648.81 192.293 651.792 188.826 655.536 186.399C659.349 183.973 663.578 182.759 668.224 182.759C672.245 182.759 675.712 183.557 678.624 185.151C681.536 186.746 683.789 188.895 685.384 191.599V183.487H705.768V241.831H685.384V233.719C683.789 236.423 681.501 238.573 678.52 240.167C675.608 241.762 672.176 242.559 668.224 242.559C663.578 242.559 659.349 241.346 655.536 238.919C651.792 236.493 648.81 233.026 646.592 228.519C644.442 223.943 643.368 218.639 643.368 212.607ZM685.384 212.607C685.384 208.863 684.344 205.917 682.264 203.767C680.253 201.618 677.757 200.543 674.776 200.543C671.725 200.543 669.194 201.618 667.184 203.767C665.173 205.847 664.168 208.794 664.168 212.607C664.168 216.351 665.173 219.333 667.184 221.551C669.194 223.701 671.725 224.775 674.776 224.775C677.757 224.775 680.253 223.701 682.264 221.551C684.344 219.402 685.384 216.421 685.384 212.607ZM726.639 178.079C723.034 178.079 720.122 177.109 717.903 175.167C715.754 173.157 714.679 170.661 714.679 167.679C714.679 164.629 715.754 162.098 717.903 160.087C720.122 158.077 723.034 157.071 726.639 157.071C730.175 157.071 733.018 158.077 735.167 160.087C737.386 162.098 738.495 164.629 738.495 167.679C738.495 170.661 737.386 173.157 735.167 175.167C733.018 177.109 730.175 178.079 726.639 178.079ZM736.727 183.487V241.831H716.343V183.487H736.727Z" fill="white"/>
<rect x="399.482" y="73" width="46.3114" height="13.4091" rx="6.70453" transform="rotate(45 399.482 73)" fill="white"/>
</svg>
