<svg width="266" height="44" viewBox="0 0 266 44" fill="none" xmlns="http://www.w3.org/2000/svg">
<path d="M78.0421 28.6231H70.9712L69.8965 31.8757H64.07L71.3389 11.9358H77.731L84.9716 31.8757H79.1169L78.0421 28.6231ZM76.6562 24.3806L74.5067 17.9319L72.3854 24.3806H76.6562ZM93.2554 32.0737C91.8224 32.0737 90.5402 31.838 89.4089 31.3666C88.2964 30.8764 87.4102 30.2164 86.7502 29.3868C86.1091 28.5383 85.7508 27.586 85.6754 26.5301H91.0493C91.1247 27.0392 91.3604 27.4352 91.7564 27.718C92.1524 28.0009 92.6426 28.1423 93.2272 28.1423C93.6797 28.1423 94.038 28.048 94.3019 27.8595C94.5659 27.6709 94.6979 27.4258 94.6979 27.1241C94.6979 26.7281 94.4811 26.4358 94.0474 26.2473C93.6137 26.0587 92.8972 25.8513 91.8978 25.625C90.7665 25.3988 89.8237 25.1442 89.0695 24.8614C88.3152 24.5785 87.6553 24.1166 87.0896 23.4755C86.5428 22.8344 86.2694 21.967 86.2694 20.8734C86.2694 19.9306 86.5239 19.0821 87.033 18.3279C87.5421 17.5548 88.2869 16.942 89.2674 16.4894C90.2668 16.0369 91.4641 15.8106 92.8595 15.8106C94.9336 15.8106 96.5646 16.3197 97.7525 17.3379C98.9405 18.3561 99.6287 19.6949 99.8172 21.3542H94.811C94.7168 20.8451 94.4905 20.4586 94.1322 20.1946C93.7928 19.9117 93.3309 19.7703 92.7463 19.7703C92.2938 19.7703 91.945 19.8552 91.6998 20.0249C91.4736 20.1946 91.3604 20.4303 91.3604 20.732C91.3604 21.1091 91.5773 21.4014 92.011 21.6088C92.4446 21.7973 93.1423 21.9953 94.1039 22.2027C95.2542 22.4478 96.2064 22.7213 96.9606 23.0229C97.7337 23.3246 98.4031 23.8149 98.9687 24.4937C99.5533 25.1536 99.8455 26.0587 99.8455 27.2089C99.8455 28.1329 99.5721 28.9625 99.0253 29.6979C98.4973 30.4333 97.7337 31.0178 96.7343 31.4515C95.7538 31.8663 94.5942 32.0737 93.2554 32.0737ZM111.65 27.1524V31.8757H109.246C105.192 31.8757 103.165 29.8676 103.165 25.8513V20.6188H101.213V16.0086H103.165V12.162H108.737V16.0086H111.622V20.6188H108.737V25.9362C108.737 26.3698 108.831 26.681 109.02 26.8695C109.227 27.0581 109.566 27.1524 110.038 27.1524H111.65ZM119.453 18.8087C120.076 17.9036 120.83 17.1871 121.716 16.6591C122.602 16.1312 123.555 15.8672 124.573 15.8672V21.7785H123.017C121.81 21.7785 120.915 22.0142 120.33 22.4856C119.746 22.957 119.453 23.7772 119.453 24.9462V31.8757H113.91V16.0086H119.453V18.8087ZM133.659 32.0737C132.075 32.0737 130.652 31.7437 129.388 31.0838C128.144 30.4238 127.163 29.481 126.447 28.2554C125.73 27.0298 125.372 25.5873 125.372 23.928C125.372 22.2876 125.73 20.8545 126.447 19.6289C127.182 18.4033 128.172 17.4605 129.417 16.8005C130.68 16.1406 132.104 15.8106 133.688 15.8106C135.271 15.8106 136.686 16.1406 137.93 16.8005C139.193 17.4605 140.183 18.4033 140.9 19.6289C141.635 20.8545 142.003 22.2876 142.003 23.928C142.003 25.5685 141.635 27.0109 140.9 28.2554C140.183 29.481 139.193 30.4238 137.93 31.0838C136.667 31.7437 135.243 32.0737 133.659 32.0737ZM133.659 27.2655C134.432 27.2655 135.073 26.9827 135.583 26.417C136.111 25.8325 136.375 25.0028 136.375 23.928C136.375 22.8532 136.111 22.033 135.583 21.4673C135.073 20.9017 134.442 20.6188 133.688 20.6188C132.933 20.6188 132.302 20.9017 131.793 21.4673C131.283 22.033 131.029 22.8532 131.029 23.928C131.029 25.0217 131.274 25.8513 131.764 26.417C132.255 26.9827 132.886 27.2655 133.659 27.2655ZM151.584 26.6433L154.554 16.0086H160.465L155.006 31.8757H148.105L142.646 16.0086H148.558L151.584 26.6433ZM164.861 14.5378C163.88 14.5378 163.088 14.2739 162.485 13.7459C161.9 13.1991 161.608 12.5203 161.608 11.7095C161.608 10.8798 161.9 10.1916 162.485 9.64478C163.088 9.09796 163.88 8.82455 164.861 8.82455C165.822 8.82455 166.595 9.09796 167.18 9.64478C167.783 10.1916 168.085 10.8798 168.085 11.7095C168.085 12.5203 167.783 13.1991 167.18 13.7459C166.595 14.2739 165.822 14.5378 164.861 14.5378ZM167.604 16.0086V31.8757H162.061V16.0086H167.604ZM177.238 32.0737C175.805 32.0737 174.523 31.838 173.391 31.3666C172.279 30.8764 171.393 30.2164 170.733 29.3868C170.092 28.5383 169.733 27.586 169.658 26.5301H175.032C175.107 27.0392 175.343 27.4352 175.739 27.718C176.135 28.0009 176.625 28.1423 177.21 28.1423C177.662 28.1423 178.021 28.048 178.285 27.8595C178.548 27.6709 178.68 27.4258 178.68 27.1241C178.68 26.7281 178.464 26.4358 178.03 26.2473C177.596 26.0587 176.88 25.8513 175.88 25.625C174.749 25.3988 173.806 25.1442 173.052 24.8614C172.298 24.5785 171.638 24.1166 171.072 23.4755C170.525 22.8344 170.252 21.967 170.252 20.8734C170.252 19.9306 170.507 19.0821 171.016 18.3279C171.525 17.5548 172.27 16.942 173.25 16.4894C174.249 16.0369 175.447 15.8106 176.842 15.8106C178.916 15.8106 180.547 16.3197 181.735 17.3379C182.923 18.3561 183.611 19.6949 183.8 21.3542H178.794C178.699 20.8451 178.473 20.4586 178.115 20.1946C177.775 19.9117 177.313 19.7703 176.729 19.7703C176.276 19.7703 175.928 19.8552 175.682 20.0249C175.456 20.1946 175.343 20.4303 175.343 20.732C175.343 21.1091 175.56 21.4014 175.994 21.6088C176.427 21.7973 177.125 21.9953 178.087 22.2027C179.237 22.4478 180.189 22.7213 180.943 23.0229C181.716 23.3246 182.386 23.8149 182.951 24.4937C183.536 25.1536 183.828 26.0587 183.828 27.2089C183.828 28.1329 183.555 28.9625 183.008 29.6979C182.48 30.4333 181.716 31.0178 180.717 31.4515C179.736 31.8663 178.577 32.0737 177.238 32.0737ZM189.071 14.5378C188.09 14.5378 187.298 14.2739 186.695 13.7459C186.11 13.1991 185.818 12.5203 185.818 11.7095C185.818 10.8798 186.11 10.1916 186.695 9.64478C187.298 9.09796 188.09 8.82455 189.071 8.82455C190.032 8.82455 190.805 9.09796 191.39 9.64478C191.993 10.1916 192.295 10.8798 192.295 11.7095C192.295 12.5203 191.993 13.1991 191.39 13.7459C190.805 14.2739 190.032 14.5378 189.071 14.5378ZM191.814 16.0086V31.8757H186.271V16.0086H191.814ZM202.07 32.0737C200.487 32.0737 199.063 31.7437 197.8 31.0838C196.555 30.4238 195.575 29.481 194.858 28.2554C194.142 27.0298 193.783 25.5873 193.783 23.928C193.783 22.2876 194.142 20.8545 194.858 19.6289C195.593 18.4033 196.583 17.4605 197.828 16.8005C199.091 16.1406 200.515 15.8106 202.099 15.8106C203.683 15.8106 205.097 16.1406 206.341 16.8005C207.605 17.4605 208.594 18.4033 209.311 19.6289C210.046 20.8545 210.414 22.2876 210.414 23.928C210.414 25.5685 210.046 27.0109 209.311 28.2554C208.594 29.481 207.605 30.4238 206.341 31.0838C205.078 31.7437 203.654 32.0737 202.07 32.0737ZM202.07 27.2655C202.843 27.2655 203.485 26.9827 203.994 26.417C204.522 25.8325 204.786 25.0028 204.786 23.928C204.786 22.8532 204.522 22.033 203.994 21.4673C203.485 20.9017 202.853 20.6188 202.099 20.6188C201.344 20.6188 200.713 20.9017 200.204 21.4673C199.695 22.033 199.44 22.8532 199.44 23.928C199.44 25.0217 199.685 25.8513 200.175 26.417C200.666 26.9827 201.297 27.2655 202.07 27.2655ZM222.767 15.8672C224.596 15.8672 226.048 16.48 227.122 17.7056C228.197 18.9124 228.735 20.5528 228.735 22.627V31.8757H223.191V23.3624C223.191 22.4573 222.955 21.7502 222.484 21.2411C222.013 20.7131 221.381 20.4491 220.589 20.4491C219.759 20.4491 219.109 20.7131 218.637 21.2411C218.166 21.7502 217.93 22.4573 217.93 23.3624V31.8757H212.387V16.0086H217.93V18.2713C218.42 17.5548 219.08 16.9797 219.91 16.546C220.74 16.0935 221.692 15.8672 222.767 15.8672ZM234.181 32.102C233.2 32.102 232.408 31.838 231.805 31.3101C231.22 30.7632 230.928 30.075 230.928 29.2454C230.928 28.4157 231.22 27.7275 231.805 27.1806C232.408 26.6338 233.2 26.3604 234.181 26.3604C235.142 26.3604 235.915 26.6338 236.5 27.1806C237.103 27.7275 237.405 28.4157 237.405 29.2454C237.405 30.0562 237.103 30.735 236.5 31.2818C235.915 31.8286 235.142 32.102 234.181 32.102ZM238.813 23.928C238.813 22.2876 239.105 20.8545 239.69 19.6289C240.293 18.4033 241.104 17.4605 242.122 16.8005C243.159 16.1406 244.309 15.8106 245.573 15.8106C246.666 15.8106 247.609 16.0275 248.401 16.4611C249.193 16.8948 249.806 17.4794 250.239 18.2147V16.0086H255.783V31.8757H250.239V29.6696C249.806 30.405 249.184 30.9895 248.373 31.4232C247.581 31.8569 246.647 32.0737 245.573 32.0737C244.309 32.0737 243.159 31.7437 242.122 31.0838C241.104 30.4238 240.293 29.481 239.69 28.2554C239.105 27.0109 238.813 25.5685 238.813 23.928ZM250.239 23.928C250.239 22.9098 249.957 22.1084 249.391 21.5239C248.844 20.9394 248.165 20.6471 247.355 20.6471C246.525 20.6471 245.837 20.9394 245.29 21.5239C244.743 22.0896 244.47 22.891 244.47 23.928C244.47 24.9462 244.743 25.757 245.29 26.3604C245.837 26.9449 246.525 27.2372 247.355 27.2372C248.165 27.2372 248.844 26.9449 249.391 26.3604C249.957 25.7759 250.239 24.9651 250.239 23.928ZM261.459 14.5378C260.479 14.5378 259.687 14.2739 259.083 13.7459C258.499 13.1991 258.207 12.5203 258.207 11.7095C258.207 10.8798 258.499 10.1916 259.083 9.64478C259.687 9.09796 260.479 8.82455 261.459 8.82455C262.421 8.82455 263.194 9.09796 263.778 9.64478C264.382 10.1916 264.684 10.8798 264.684 11.7095C264.684 12.5203 264.382 13.1991 263.778 13.7459C263.194 14.2739 262.421 14.5378 261.459 14.5378ZM264.203 16.0086V31.8757H258.659V16.0086H264.203Z" fill="white"/>
<path d="M39.8978 0.0772315C38.1491 0.5326 36.145 1.50273 33.355 3.26481L31.3313 4.55172L30.2113 4.05675C27.4606 2.82924 24.6509 2.29468 21.0946 2.29468C14.1392 2.31448 8.34305 5.22487 4.8457 10.4319C1.11257 15.9755 0.641019 24.4493 3.72576 30.6067L4.37415 31.9134L3.21491 33.6953C1.07328 36.9819 -0.223495 40.2486 0.0319294 41.6741C0.955388 46.5842 14.8269 37.6154 28.2072 23.4198C36.4201 14.7282 42.2949 6.13561 42.6878 2.25508C42.7861 1.36414 42.7271 1.14636 42.3342 0.67119C41.8626 0.116829 40.782 -0.140553 39.8978 0.0772315ZM24.1597 10.2537C25.0046 10.4715 26.1442 10.8873 26.6943 11.1843C27.8536 11.798 30.4275 14.2926 30.3292 14.7084C30.0738 15.8567 15.3771 30.6463 14.4732 30.6463C14.0606 30.6463 12.4102 28.5278 11.7815 27.2211C9.14862 21.6379 10.7401 14.5896 15.2985 11.6198C16.3595 10.9269 18.2064 10.1943 19.3656 9.99634C20.6624 9.77856 22.7647 9.87755 24.1597 10.2537Z" fill="white"/>
<path d="M38.6406 17.599C33.4339 25.3403 24.5922 34.1704 16.9491 39.2587C16.2025 39.7537 15.8882 40.0704 16.0453 40.1694C16.6348 40.5258 19.7785 40.7832 22.3917 40.6842C30.9779 40.3674 37.5599 35.7147 39.957 28.2705C41.1359 24.6275 41.2931 19.4205 40.3303 16.2329L40.0945 15.4409L38.6406 17.599Z" fill="white"/>
<rect x="31.8501" y="27.3542" width="17.3537" height="5.02461" rx="2.5123" transform="rotate(45 31.8501 27.3542)" fill="white"/>
</svg>
